<svg xmlns="http://www.w3.org/2000/svg" width="135" height="54" viewBox="0 0 135 54" fill="none"><path d="M19.2875 38.689C20.5097 39.7966 22.343 43.3867 0.0381232 46.1748V49.8414C-7.00578e-05 49.8414 29.3324 46.4804 19.2875 38.689Z" fill="url(#paint0_linear_21353_14149)"></path><path d="M21.8083 43.8457C16.8814 49.3455 0 50.8733 0 50.8733V53.8141C28.263 49.9948 21.8083 43.8457 21.8083 43.8457Z" fill="url(#paint1_linear_21353_14149)"></path><path d="M5.57621 12.4892C5.99633 12.1837 6.7984 11.9545 7.44769 11.3816V43.7695C9.20458 43.4639 11.1142 43.1584 12.451 42.8528V8.4789C12.7947 8.24974 13.826 7.56226 14.3225 7.06575V42.3181C16.7286 41.6688 18.3328 40.905 19.3258 40.0265V0C13.9023 5.0797 7.3713 9.31915 0 12.4128V44.8771C1.87147 44.6479 3.9721 44.4188 5.53802 44.1514V12.4892H5.57621Z" fill="url(#paint2_linear_21353_14149)"></path><path d="M133.396 21.3691C133.663 21.2927 133.816 21.0635 133.816 20.7962C133.816 20.4524 133.549 20.1851 133.129 20.1851H132.632C132.556 20.1851 132.479 20.2614 132.479 20.3378V21.9801C132.479 22.0565 132.556 22.1329 132.632 22.1329C132.709 22.1329 132.785 22.0565 132.785 21.9801V21.4072H133.129L133.663 22.0565C133.702 22.0947 133.74 22.0947 133.778 22.0947C133.854 22.0947 133.931 22.0183 133.931 21.942C133.931 21.9038 133.931 21.8656 133.893 21.8656L133.396 21.3691ZM132.747 21.1399V20.4142H133.091C133.358 20.4142 133.511 20.5288 133.511 20.758C133.511 21.0253 133.358 21.1017 133.091 21.1017H132.747V21.1399Z" fill="black"></path><path d="M133.013 19.1919C131.906 19.1919 131.027 20.1085 131.027 21.1779C131.027 22.2855 131.944 23.164 133.013 23.164C134.121 23.164 134.999 22.2474 134.999 21.1779C135.038 20.0703 134.121 19.1919 133.013 19.1919ZM133.013 22.9348C132.059 22.9348 131.257 22.171 131.257 21.1779C131.257 20.2231 132.02 19.4211 133.013 19.4211C133.968 19.4211 134.77 20.1849 134.77 21.1779C134.77 22.1328 134.006 22.9348 133.013 22.9348Z" fill="black"></path><path d="M35.5819 19.498C35.7728 19.9563 36.1548 20.7202 36.6513 21.7132C37.186 22.7444 37.7207 23.7374 38.2172 24.8069C38.7519 25.8381 39.3248 26.9457 39.9741 28.0915C40.5088 29.0081 40.7761 29.5428 40.8525 29.6956C42.724 25.4561 44.1753 22.0569 45.1302 19.498C46.9253 19.498 48.6058 19.4598 50.1335 19.3452C50.2863 19.3452 50.4008 19.3452 50.439 19.3452C50.7446 19.3452 50.8974 19.4598 50.8974 19.689C50.8974 19.9181 50.7828 19.9945 50.5536 19.9945C49.7134 19.9945 49.1405 20.3 48.8731 20.8729C48.6058 21.4458 48.453 22.8972 48.453 25.1506V30.6886C48.453 31.8344 48.6058 32.5983 48.9113 33.0566C49.2168 33.5149 49.6752 33.7441 50.3626 33.7823C50.6682 33.7823 50.8592 33.8968 50.8592 34.126C50.8592 34.2406 50.7828 34.317 50.6682 34.3934L47.4982 34.3552C46.5433 34.3552 45.2066 34.3934 43.5261 34.4697C43.3733 34.3552 43.2969 34.2788 43.2969 34.1642C43.2969 33.9732 43.4879 33.8587 43.8698 33.8205C44.2517 33.7441 44.5573 33.6677 44.7482 33.5149C44.9392 33.4003 45.0538 33.133 45.1302 32.7892C45.2066 32.4455 45.2829 31.949 45.2829 31.2615L45.3211 26.22C45.3211 23.6229 45.3211 22.1333 45.3211 21.7514C43.2587 26.5255 41.9983 29.5428 41.5018 30.8796L40.356 33.935C40.2414 34.2406 40.0887 34.4316 39.9741 34.4316C39.8213 34.4316 39.6685 34.2406 39.4776 33.8205C38.9429 32.6747 36.9568 28.8171 33.5958 22.3243C33.5576 24.1958 33.5576 26.7165 33.5576 29.8866C33.5576 31.5671 33.634 32.6365 33.825 33.0566C34.0159 33.4767 34.5506 33.7441 35.3909 33.8205C35.6582 33.8587 35.811 33.9732 35.811 34.126C35.811 34.317 35.6964 34.4316 35.4673 34.4316C35.3909 34.4316 35.2763 34.4316 35.1999 34.4316C34.2833 34.3552 33.634 34.317 33.2521 34.317C32.1827 34.317 31.3806 34.3552 30.8077 34.4316C30.6931 34.4316 30.6167 34.4697 30.5785 34.4697C30.3112 34.4697 30.1966 34.3552 30.1966 34.126C30.1966 34.0114 30.2348 33.935 30.3112 33.8968C30.3876 33.8587 30.5403 33.8205 30.8077 33.7441C31.5334 33.5913 31.9917 33.3621 32.2208 32.9802C32.45 32.5983 32.5646 31.949 32.5646 31.1087L32.6028 24.6541C32.6028 23.1645 32.5646 22.2097 32.4882 21.7514C32.4118 21.2931 32.2208 20.9111 31.9153 20.6438C31.6098 20.3764 31.1514 20.1855 30.464 20.0709C30.1966 20.0327 30.082 19.8799 30.082 19.689C30.082 19.4598 30.2348 19.3834 30.5022 19.3834C30.5785 19.3834 30.6549 19.3834 30.7695 19.3834C31.6098 19.4598 33.1757 19.498 35.5819 19.498Z" fill="black"></path><path d="M52.6163 19.3833C52.8837 19.3833 53.4184 19.4215 54.2586 19.4597C54.8697 19.4979 55.3662 19.4979 55.7482 19.4979L59.2237 19.4215C59.5293 19.4215 59.6821 19.5361 59.6821 19.727C59.6821 19.918 59.5675 20.0326 59.3001 20.0326C58.689 20.109 58.3071 20.1854 58.1161 20.3763C57.9252 20.5291 57.7724 20.911 57.6578 21.4839C57.5432 22.0568 57.505 23.3936 57.505 25.456C57.505 27.824 57.5432 29.6573 57.6196 30.9559C57.696 32.2544 57.8488 33.0565 58.0779 33.362C58.3071 33.6676 58.689 33.8204 59.2237 33.8204C59.6057 33.8204 59.7966 33.9349 59.7966 34.1259C59.7966 34.3933 59.6057 34.5078 59.1855 34.5078C59.071 34.5078 58.9182 34.5078 58.689 34.5078C57.2759 34.3933 56.321 34.3551 55.7863 34.3551C54.6405 34.3551 53.8003 34.3933 53.2656 34.4696C52.96 34.5078 52.7691 34.5078 52.6545 34.5078C52.3871 34.5078 52.2344 34.3933 52.2344 34.1641C52.2344 33.9731 52.349 33.8967 52.5781 33.8585C53.2274 33.7822 53.6475 33.5912 53.8767 33.3238C54.1058 33.0565 54.2204 32.369 54.2968 31.3378C54.335 30.3066 54.3732 28.6643 54.3732 26.4491C54.3732 24.1193 54.335 22.5533 54.2586 21.7895C54.1822 20.9874 54.0295 20.5291 53.8385 20.3381C53.6475 20.1472 53.2656 20.0326 52.7309 19.9944C52.4253 19.9562 52.3108 19.8416 52.3108 19.6507C52.1962 19.4979 52.349 19.3833 52.6163 19.3833Z" fill="black"></path><path d="M65.0276 19.4216C68.6178 23.5465 71.6351 26.8311 74.0412 29.3137C74.0412 28.8171 74.0412 28.4734 74.0412 28.3206V23.852C74.0412 22.7826 73.9649 22.0569 73.8503 21.5986C73.7357 21.1403 73.4683 20.7966 73.0864 20.5292C72.7045 20.2619 72.2462 20.1091 71.7115 20.0709C71.4441 20.0327 71.2913 19.9181 71.2913 19.7271C71.2913 19.498 71.4059 19.3834 71.6733 19.3834C71.826 19.3834 72.017 19.3834 72.2462 19.4216C72.6663 19.4598 73.3156 19.498 74.1176 19.498C75.1488 19.498 75.9509 19.4598 76.4856 19.4216C76.7148 19.3834 76.9057 19.3834 77.0585 19.3834C77.3259 19.3834 77.4786 19.498 77.4786 19.7271C77.4786 19.9563 77.2877 20.0709 76.9057 20.1091C76.4474 20.1473 75.9891 20.3382 75.569 20.7202C75.1489 21.0639 74.9579 21.7896 74.9579 22.8208L74.9961 29.1991L74.9197 34.0114C74.9197 34.4316 74.8051 34.6225 74.5378 34.6225C74.4614 34.6225 74.385 34.5843 74.3086 34.5461C74.2322 34.5079 73.6975 33.9732 72.7427 32.9802C71.7878 31.9872 70.3747 30.4213 68.5414 28.3206C66.6699 26.22 65.3714 24.7305 64.6075 23.8138C64.6075 24.0048 64.5693 25.9145 64.5693 29.5046C64.5693 30.6122 64.6075 31.4907 64.7221 32.1018C64.7985 32.7129 65.104 33.1712 65.6005 33.4767C66.097 33.7441 66.5554 33.8968 66.9373 33.8968C67.2047 33.8968 67.3192 34.0114 67.3192 34.2024C67.3192 34.4316 67.1665 34.5461 66.8991 34.5461C66.7081 34.5461 66.5172 34.5461 66.2498 34.5079C65.7915 34.4316 65.2186 34.4316 64.5311 34.4316C63.4235 34.4316 62.5833 34.4697 62.0868 34.5461C61.7812 34.5843 61.5521 34.5843 61.3993 34.5843C61.0937 34.5843 60.941 34.4697 60.941 34.2024C60.941 34.0114 61.1701 33.8968 61.6666 33.8587C62.5069 33.7823 63.0416 33.5149 63.2707 32.9802C63.4999 32.4455 63.5763 31.758 63.5763 30.8414C63.5763 26.9457 63.5381 24.5777 63.4999 23.6992C63.4617 22.8208 63.1944 22.0569 62.6978 21.3313C62.2013 20.6438 61.5902 20.2237 60.8646 20.0709C60.559 20.0327 60.4062 19.9181 60.4062 19.7271C60.4062 19.4598 60.559 19.3452 60.8646 19.3452C60.941 19.3452 61.0555 19.3452 61.2083 19.3834C61.3993 19.3834 61.7048 19.4216 62.1631 19.4216C63.2707 19.3834 64.1874 19.3834 65.0276 19.4216Z" fill="black"></path><path d="M78.8169 19.3066C82.7127 19.4212 85.6153 19.4594 87.4868 19.4594C88.9 19.4594 90.4659 19.4212 92.1846 19.3448C92.7957 19.3066 93.2922 19.3066 93.6741 19.3066C93.8269 19.3066 94.0942 19.3066 94.438 19.3066C94.4762 19.6122 94.5526 20.2615 94.6289 21.2163L94.7817 23.0114C94.7817 23.3169 94.6671 23.4697 94.3998 23.4697C94.2088 23.4697 94.0179 23.2787 93.8651 22.935C93.5595 22.3239 93.2158 21.7892 92.7575 21.3691C92.2992 20.9489 91.8026 20.6434 91.1916 20.4906C90.6187 20.3379 89.6256 20.2615 88.2507 20.2615C88.1361 21.4073 88.0597 22.8586 88.0597 24.5773C88.0597 26.3342 88.0979 28.0529 88.1743 29.6952C88.2507 31.3375 88.3271 32.3305 88.4416 32.6743C88.5562 33.018 88.709 33.2472 88.9382 33.4381C89.1673 33.5909 89.7402 33.7055 90.5805 33.7819C90.886 33.8201 91.0388 33.8965 91.0388 34.0874C91.0388 34.3166 90.9242 34.393 90.6569 34.393H90.3513L88.0215 34.3548C86.1882 34.3548 85.0806 34.3548 84.6987 34.393L83.2855 34.4312C83.171 34.4312 82.9418 34.4312 82.5981 34.393C82.4071 34.3548 82.3307 34.2784 82.3307 34.1256C82.3307 33.8965 82.4835 33.7819 82.7508 33.7819C83.4383 33.7819 83.9348 33.6291 84.2786 33.3618C84.6223 33.0944 84.8133 32.6361 84.8897 32.025C84.9661 31.4139 85.0042 30.1153 85.0042 28.0911C85.0042 24.8829 84.8897 22.2857 84.6987 20.2615C83.4383 20.2615 82.5599 20.2997 81.987 20.4142C81.4141 20.5288 80.9176 20.7962 80.3829 21.2545C79.8863 21.7128 79.4662 22.2857 79.1225 23.0114C79.0079 23.2787 78.8551 23.4315 78.6642 23.4315C78.3968 23.4315 78.2822 23.3169 78.2822 23.0878C78.2822 23.0114 78.3204 22.5149 78.435 21.5982C78.5878 20.6816 78.7024 19.9177 78.8169 19.3066Z" fill="black"></path><path d="M104.596 26.0672C106.697 23.3173 107.766 21.6368 107.766 21.0257C107.766 20.8348 107.69 20.682 107.575 20.491C107.461 20.3 107.117 20.1473 106.544 19.9945C106.315 19.9181 106.2 19.8417 106.2 19.689C106.2 19.4598 106.353 19.3452 106.62 19.3452C106.697 19.3452 106.811 19.3452 106.926 19.3834C107.881 19.4598 108.606 19.498 109.141 19.498C109.676 19.498 110.325 19.4598 111.089 19.3834C111.242 19.3834 111.356 19.3452 111.433 19.3452C111.662 19.3452 111.776 19.4598 111.776 19.6508C111.776 19.8417 111.662 19.9563 111.433 19.9563C110.936 19.9945 110.478 20.1855 110.02 20.4528C109.599 20.7202 109.065 21.2931 108.454 22.0569C107.842 22.859 107.155 23.7756 106.429 24.8832C105.704 25.9526 105.284 26.6401 105.207 26.8693C105.131 27.0984 105.093 27.9387 105.093 29.3137C105.093 31.4525 105.207 32.7129 105.398 33.133C105.589 33.5531 106.086 33.7823 106.811 33.7823C107.079 33.7823 107.231 33.8968 107.231 34.126C107.231 34.3552 107.079 34.4698 106.773 34.4698C106.544 34.4698 105.933 34.4316 104.902 34.3552C104.329 34.317 103.909 34.317 103.641 34.317C102.801 34.317 101.884 34.3552 100.853 34.4698C100.662 34.4698 100.509 34.5079 100.395 34.5079C100.089 34.5079 99.9747 34.3934 99.9747 34.1642C99.9747 33.9732 100.089 33.8587 100.318 33.8587C101.044 33.7823 101.541 33.5149 101.732 33.133C101.923 32.7129 102.037 31.8344 102.037 30.4595C102.037 29.2373 101.961 28.397 101.808 27.9769C101.655 27.5568 101.235 26.7929 100.548 25.6853C99.8601 24.5777 99.1726 23.5083 98.4851 22.4771C97.7977 21.4458 97.263 20.7966 96.9192 20.5292C96.5373 20.2619 96.1554 20.0709 95.7352 19.9945C95.5061 19.9563 95.4297 19.8417 95.4297 19.689C95.4297 19.4598 95.5443 19.3452 95.8116 19.3452C95.9262 19.3452 96.1172 19.3452 96.3845 19.3834C97.5685 19.4598 98.4088 19.498 98.9435 19.498C99.7837 19.498 100.777 19.4598 101.846 19.3834C102.075 19.3834 102.266 19.3452 102.419 19.3452C102.686 19.3452 102.801 19.4598 102.801 19.6508C102.801 19.8417 102.648 19.9563 102.381 19.9945C101.617 20.0709 101.235 20.3382 101.235 20.8348C101.235 21.2931 102.343 23.05 104.596 26.0672Z" fill="black"></path><path d="M116.628 19.4216C120.218 23.5465 123.236 26.8311 125.642 29.3137C125.642 28.8171 125.642 28.4734 125.642 28.3206V23.852C125.642 22.7826 125.565 22.0569 125.451 21.5986C125.336 21.1403 125.069 20.7966 124.687 20.5292C124.305 20.2619 123.847 20.1091 123.312 20.0709C123.045 20.0327 122.892 19.9181 122.892 19.7271C122.892 19.498 123.006 19.3834 123.274 19.3834C123.427 19.3834 123.618 19.3834 123.847 19.4216C124.267 19.4598 124.916 19.498 125.718 19.498C126.749 19.498 127.551 19.4598 128.086 19.4216C128.315 19.3834 128.506 19.3834 128.659 19.3834C128.926 19.3834 129.079 19.498 129.079 19.7271C129.079 19.9563 128.888 20.0709 128.506 20.1091C128.048 20.1473 127.59 20.3382 127.17 20.7202C126.749 21.0639 126.558 21.7896 126.558 22.8208L126.597 29.1991L126.52 34.0114C126.52 34.4316 126.406 34.6225 126.138 34.6225C126.062 34.6225 125.986 34.5843 125.909 34.5461C125.833 34.5079 125.298 33.9732 124.343 32.9802C123.388 31.9872 121.975 30.4213 120.142 28.3206C118.271 26.22 116.972 24.7305 116.208 23.8138C116.208 24.0048 116.17 25.9145 116.17 29.5046C116.17 30.6122 116.208 31.4907 116.323 32.1018C116.399 32.7129 116.705 33.1712 117.201 33.4767C117.698 33.7441 118.156 33.8968 118.538 33.8968C118.805 33.8968 118.92 34.0114 118.92 34.2024C118.92 34.4316 118.767 34.5461 118.5 34.5461C118.309 34.5461 118.118 34.5461 117.85 34.5079C117.392 34.4316 116.819 34.4316 116.132 34.4316C115.024 34.4316 114.184 34.4697 113.687 34.5461C113.382 34.5843 113.153 34.5843 113 34.5843C112.694 34.5843 112.542 34.4697 112.542 34.2024C112.542 34.0114 112.771 33.8968 113.267 33.8587C114.107 33.7823 114.642 33.5149 114.871 32.9802C115.1 32.4455 115.177 31.758 115.177 30.8414C115.177 26.9457 115.139 24.5777 115.1 23.6992C115.062 22.8208 114.795 22.0569 114.298 21.3313C113.802 20.6438 113.191 20.2237 112.465 20.0709C112.16 20.0327 112.007 19.9181 112.007 19.7271C112.007 19.4598 112.16 19.3452 112.465 19.3452C112.542 19.3452 112.656 19.3452 112.809 19.3834C113 19.3834 113.305 19.4216 113.764 19.4216C114.871 19.3834 115.788 19.3834 116.628 19.4216Z" fill="black"></path><defs><linearGradient id="paint0_linear_21353_14149" x1="0.0129538" y1="44.2595" x2="21.3709" y2="44.2595" gradientUnits="userSpaceOnUse"><stop stop-color="#D1A23C"></stop><stop offset="1" stop-color="#77502F"></stop></linearGradient><linearGradient id="paint1_linear_21353_14149" x1="0.0130239" y1="48.8194" x2="22.4587" y2="48.8194" gradientUnits="userSpaceOnUse"><stop stop-color="#D1A23C"></stop><stop offset="1" stop-color="#77502F"></stop></linearGradient><linearGradient id="paint2_linear_21353_14149" x1="0.013826" y1="22.4497" x2="19.3326" y2="22.4497" gradientUnits="userSpaceOnUse"><stop stop-color="#D1A23C"></stop><stop offset="1" stop-color="#77502F"></stop></linearGradient></defs></svg>